<svg width="60" height="60" viewBox="0 0 60 60" fill="none" xmlns="http://www.w3.org/2000/svg">
<path d="M42.1688 44.4562H28.0312C27.1873 44.4884 26.3465 44.3375 25.5665 44.0138C24.7864 43.6901 24.0857 43.2014 23.5125 42.5812C21.5634 40.448 19.9568 38.0255 18.75 35.4C16.3125 30.525 13.9875 25.6125 11.5875 20.7375C10.8562 19.2375 10.05 17.8125 9.1875 16.3875C7.95528 13.9593 6.07281 11.921 3.75 10.5H10.4438C14.8416 10.5433 19.2297 10.9257 23.5687 11.6437C26.2162 12.0438 28.7106 13.1376 30.7985 14.8138C32.8864 16.49 34.4934 18.6891 35.4562 21.1875C37.1748 25.6728 38.5353 30.2873 39.525 34.9875C40.0849 38.2248 40.9707 41.3971 42.1688 44.4562Z" fill="#6063FF"/>
<path d="M52.6875 49.4625C51.3822 49.3839 50.1477 48.8422 49.206 47.9349C48.2643 47.0275 47.6771 45.814 47.55 44.5125C47.2841 41.4577 47.1964 38.39 47.2875 35.325C47.2827 30.5647 46.9003 25.8123 46.1438 21.1125C46.0051 19.7367 45.4637 18.4323 44.5875 17.3625H49.5563C50.5688 17.3625 50.925 18.0563 51.225 18.825C51.9263 20.782 52.3554 22.8262 52.5 24.9C53.0438 30 53.0813 35.1188 53.1188 40.2375C53.081 40.9558 53.081 41.6755 53.1188 42.3938C53.2875 43.8563 53.8688 44.4563 55.3125 44.4188C56.25 44.4188 56.25 44.3063 56.25 44.3063V49.35C55.0703 49.5187 53.8755 49.5565 52.6875 49.4625Z" fill="#6063FF"/>
</svg>
